<svg width="347" height="218" viewBox="0 0 347 218" fill="none" xmlns="http://www.w3.org/2000/svg">

<path d="M123.927 133.288C123.382 132.743 122.626 132.43 121.856 132.43C121.085 132.43 120.329 132.743 119.784 133.288C119.239 133.833 118.926 134.589 118.926 135.359C118.926 136.13 119.239 136.886 119.784 137.43C120.329 137.975 121.085 138.289 121.856 138.289C122.626 138.289 123.382 137.976 123.927 137.43C124.472 136.886 124.785 136.13 124.785 135.359C124.785 134.589 124.472 133.833 123.927 133.288Z" fill="#452B4E"/>
<path d="M236.56 53.6006C236.015 53.0554 235.262 52.7422 234.488 52.7422C233.718 52.7422 232.962 53.0554 232.417 53.6006C231.872 54.1455 231.559 54.9014 231.559 55.6719C231.559 56.4425 231.872 57.1984 232.417 57.743C232.962 58.2879 233.718 58.6017 234.488 58.6017C235.262 58.6017 236.015 58.2882 236.56 57.743C237.107 57.1984 237.421 56.4425 237.421 55.6719C237.421 54.9014 237.107 54.1455 236.56 53.6006Z" fill="#452B4E"/>
<path d="M248.142 0.858127C247.592 0.308797 246.847 0 246.07 0L173.999 0.00380869C172.381 0.00380869 171.07 1.31576 171.07 2.93357V11.3118L143.299 18.7531C141.736 19.1721 140.808 20.7785 141.227 22.3412L155.62 76.056L143.169 88.5072C141.584 86.1933 138.924 84.6716 135.914 84.6716H107.789C102.943 84.6716 99 88.6145 99 93.4606V141.215C99 146.061 102.943 150.004 107.789 150.004H135.914C140.031 150.004 143.495 147.157 144.444 143.33L147.928 146.368C150.617 148.713 154.062 150.004 157.63 150.004H246.07C247.688 150.004 249 148.692 249 147.074V2.92976C248.999 2.15279 248.691 1.40746 248.142 0.858127ZM138.843 141.215C138.843 142.83 137.529 144.145 135.914 144.145H107.789C106.173 144.145 104.859 142.83 104.859 141.215V93.4609C104.859 91.8454 106.173 90.5311 107.789 90.5311H118.922V124.281C118.922 125.898 120.233 127.21 121.851 127.21C123.469 127.21 124.781 125.898 124.781 124.281V90.5311H135.914C137.529 90.5311 138.844 91.8454 138.844 93.4609V141.215H138.843ZM147.645 23.6546L171.07 17.3779V28.2341L169.106 28.7603C168.355 28.9616 167.716 29.4523 167.327 30.1253C166.939 30.7982 166.833 31.5978 167.035 32.3484C168.161 36.55 165.658 40.8839 161.457 42.0099C160.705 42.2114 160.064 42.703 159.676 43.3775C159.288 44.0516 159.183 44.8526 159.386 45.6038L170.806 87.8914H164.926L161.896 76.0364C161.8 75.6591 161.631 75.3113 161.405 75.0089L147.645 23.6546ZM171.07 41.6697V66.3913L165.726 46.6052C167.958 45.4526 169.785 43.7282 171.07 41.6697ZM213.16 144.144H157.63C155.478 144.144 153.4 143.366 151.778 141.951L144.703 135.781V95.2603L157.494 82.4696L159.813 91.546C160.145 92.843 161.313 93.75 162.652 93.75L220.252 93.7536C222.514 93.7536 224.354 95.5934 224.354 97.8552C224.354 100.117 222.514 101.957 220.252 101.957H190.738C189.12 101.957 187.808 103.269 187.808 104.887C187.808 106.504 189.12 107.816 190.738 107.816H229.422C231.684 107.816 233.524 109.656 233.524 111.918C233.524 114.18 231.684 116.02 229.422 116.02H190.738C189.12 116.02 187.808 117.332 187.808 118.95C187.808 120.567 189.12 121.879 190.738 121.879H223.153C225.415 121.879 227.255 123.719 227.255 125.981C227.255 128.243 225.415 130.083 223.153 130.083H190.738C189.12 130.083 187.808 131.395 187.808 133.012C187.808 134.63 189.12 135.942 190.738 135.942H213.16C215.422 135.942 217.262 137.782 217.262 140.044C217.261 142.304 215.421 144.144 213.16 144.144ZM243.14 144.144H243.14H222.234C222.802 142.892 223.121 141.505 223.121 140.043C223.121 138.581 222.802 137.193 222.234 135.941H223.153C228.646 135.941 233.114 131.472 233.114 125.98C233.114 124.378 232.732 122.864 232.057 121.522C236.275 120.363 239.383 116.498 239.383 111.917C239.383 109.696 238.651 107.642 237.417 105.983V68.8515C237.417 67.2336 236.105 65.9217 234.487 65.9217C232.869 65.9217 231.557 67.2336 231.557 68.8515V102.19C230.869 102.039 230.155 101.957 229.422 101.957H229.325C229.894 100.705 230.213 99.3172 230.213 97.8552C230.213 92.3625 225.744 87.8943 220.252 87.8943H215.542C220.543 85.7497 224.055 80.7791 224.055 75.0019C224.055 67.2706 217.766 60.9807 210.034 60.9807C202.303 60.9807 196.013 67.2706 196.013 75.0019C196.013 80.7791 199.526 85.7497 204.526 87.8943H188.511V32.1872C193.745 31.0467 197.875 26.9172 199.015 21.6832H221.053C222.193 26.9172 226.323 31.0467 231.557 32.1872V41.2959C231.557 42.9137 232.869 44.2256 234.487 44.2256C236.104 44.2256 237.416 42.9137 237.416 41.2959V29.5716C237.416 27.9537 236.104 26.6418 234.487 26.6418C230.137 26.6418 226.598 23.1029 226.598 18.7534C226.598 17.1356 225.287 15.8236 223.669 15.8236H196.4C194.782 15.8236 193.47 17.1356 193.47 18.7534C193.47 23.1032 189.931 26.6418 185.582 26.6418C183.964 26.6418 182.652 27.9537 182.652 29.5716V87.894H176.93V5.86275L243.14 5.85952V144.144ZM210.035 83.1636C205.534 83.1636 201.873 79.5023 201.873 75.0022C201.873 70.5021 205.535 66.8405 210.035 66.8405C214.535 66.8405 218.196 70.5018 218.196 75.0019C218.196 79.502 214.535 83.1636 210.035 83.1636Z" fill="#452B4E"/>
</svg>
